<?xml version="1.0" encoding="utf-8"?>
<!-- Generator: Adobe Illustrator 30.1.0, SVG Export Plug-In . SVG Version: 9.03 Build 0)  -->
<svg version="1.1" id="Layer_1" xmlns="http://www.w3.org/2000/svg" xmlns:xlink="http://www.w3.org/1999/xlink" x="0px" y="0px"
	 viewBox="0 0 316.48 65.53" style="enable-background:new 0 0 316.48 65.53;" xml:space="preserve">
<g>
	<path style="fill:#F4F4F4;" d="M286,25.73c-2.23-3.1-7.46-8.29-3.52-12.18c3.83-3.79,9.24,1.2,13.15,0.83l0.17,1.85
		c-3.39,0.32-9.51-3.83-12.01-1.36c-2.73,2.7,2.16,7.6,3.72,9.77L286,25.73z"/>
	<path style="fill:#F4F4F4;" d="M294.98,14.42c-1.8-2.52-6.6-3.97-7.02,0.6c-0.32,3.49,4.75,6,5.77,9.7l-1.79,0.5
		c-1.01-3.65-6.28-5.52-5.83-10.37c0.58-6.39,7.57-5.46,10.38-1.51C296.49,13.34,294.98,14.42,294.98,14.42z"/>
	<path style="fill:#F4F4F4;" d="M304.03,24.52c1.57-2.18,6.24-6.84,3.5-9.55c-2.5-2.47-8.62,1.68-12.01,1.36l0.18-1.85
		c3.9,0.37,9.32-4.62,13.14-0.83c3.92,3.88-1.07,8.86-3.3,11.96l-1.51-1.08V24.52z"/>
	<path style="fill:#F4F4F4;" d="M295.34,13.34c2.82-3.95,9.81-4.88,10.39,1.51c0.44,4.85-4.83,6.71-5.83,10.37l-1.79-0.5
		c1.02-3.7,6.09-6.21,5.78-9.7c-0.42-4.57-5.22-3.12-7.02-0.6l-1.52-1.08L295.34,13.34z"/>
	<path style="fill:#F4F4F4;" d="M295.98,15.9c-1.96,0-2.98-2.18-2.98-4.02s1.02-4.02,2.98-4.02s2.98,2.18,2.98,4.02
		S297.93,15.9,295.98,15.9 M295.98,14.04c0.31,0,1.12-0.59,1.12-2.16s-0.81-2.16-1.12-2.16s-1.12,0.58-1.12,2.16
		S295.67,14.04,295.98,14.04"/>
	<path style="fill:#F4F4F4;" d="M72.03,49.45c0,1.34,0.34,2.06,1.73,2.06h1.97v3.84H60.28v-3.84h2.06c1.39,0,1.73-0.72,1.73-2.06
		V38.8c0-1.34-0.33-2.07-1.73-2.07h-2.21v-3.84h11.9C72.03,32.89,72.03,49.45,72.03,49.45z M72.03,26.75c0,2.35-1.82,4.17-4.17,4.17
		s-4.18-1.82-4.18-4.17s1.82-4.18,4.18-4.18S72.03,24.39,72.03,26.75"/>
	<path style="fill:#F4F4F4;" d="M129.81,52.33c4.13,0,8.4,1.01,8.4,6c0,6-6.53,7.2-14.01,7.2c-6.91,0-12.09-1.15-12.09-4.7
		c0-2.25,2.16-3.26,4.03-3.6v-0.1c-1.82-0.62-3.65-2.21-3.65-4.32c0-2.88,1.58-3.89,4.13-4.89c-2.25-1.58-3.26-3.84-3.26-7.3
		c0-5.76,5.61-8.45,10.65-8.45c2.59,0,5.09,0.87,7.3,2.16c1.49-1.3,3.26-2.16,5.28-2.16c2.64,0,5.23,1.63,5.23,4.51
		c0,2.21-1.34,3.45-3.55,3.45c-1.58,0-2.64-1.2-2.64-2.74c0-1.06,0.57-1.77,1.34-2.4c-1.06-0.19-2.5-0.86-4.12,1.01
		c0.86,1.44,1.68,3.21,1.68,4.94c0,6.29-5.09,9.07-11.04,9.07c-1.64,0-3.36-0.19-4.9-0.82c-0.48,0.15-0.96,0.68-0.96,1.39
		c0,1.2,1.68,1.73,2.45,1.73h9.74L129.81,52.33z M125.3,62.32c4.03,0,7.25-0.58,7.25-1.97c0-1.68-3.22-1.97-7.25-1.97
		s-7.25,0.29-7.25,1.97C118.05,61.74,121.26,62.32,125.3,62.32 M121.13,41.1c0,3.55,0.67,5.95,2.78,5.95s2.79-2.4,2.79-5.95
		s-0.67-6-2.79-6S121.13,37.55,121.13,41.1"/>
	<path style="fill:#F4F4F4;" d="M174.65,47.33v1.46c0,4.52-1.95,7.26-6.67,7.26c-2.09,0-4.14-0.66-5.84-1.91
		c-2.12,1.46-4.79,1.91-6.67,1.91c-6.4,0-8.72-3.62-8.72-7.68s2.43-5.56,5.7-7.05c-0.66-0.94-1.11-2.12-1.11-4.03
		c0-3.27,2.61-5.66,5.94-5.66c3.58,0,5.98,2.01,5.98,5.25c0,2.36-1.8,4.45-3.82,5.46c1.46,1.91,2.74,4.1,4.48,5.77l0.69-0.83
		c0.62-0.76,1.22-1.81,1.22-2.36c0-0.66-0.66-0.87-1.32-0.87h-1.25v-3.06h9.97v3.06c-1.91,0-2.67,0.07-3.12,0.77l-4,5.91
		c0.56,0.77,1.46,1.71,2.96,1.71c1.77,0,2.47-1.71,2.47-3.79v-1.29h3.13L174.65,47.33z M152.41,48.27c0,2.43,2.12,4.31,4.49,4.31
		c0.97,0,2.01-0.31,2.81-0.87c-2.18-2.05-3.82-4.62-5.45-7.09c-1.36,0.87-1.84,2.08-1.84,3.65 M157.9,34.68
		c-1.08,0-1.63,0.9-1.63,1.88c0,0.66,0.8,2.22,1.25,2.74c1.32-0.59,2.26-1.29,2.26-2.85C159.78,35.2,159.08,34.68,157.9,34.68"/>
	<path style="fill:#F4F4F4;" d="M187.58,29.68c0-1.2-0.67-1.92-1.87-1.92h-2.73v-4.23h20.68c6.91,0,10.17,3.12,10.17,7.44
		s-2.98,6.62-6.87,7.54v0.1c4.08,1.25,8.4,2.45,8.4,8.21c0,6.14-3.65,8.54-12.95,8.54h-19.39v-4.22h2.69c1.2,0,1.87-0.72,1.87-1.92
		V29.69V29.68z M196.61,36.74h2.64c3.26,0,5.56-1.01,5.56-4.51s-2.3-4.46-5.56-4.46h-2.64C196.61,27.77,196.61,36.74,196.61,36.74z
		 M196.61,51.13h3.21c3.41,0,6.1-0.96,6.1-5.08s-2.68-5.09-6.1-5.09h-3.21C196.61,40.96,196.61,51.13,196.61,51.13z"/>
	<path style="fill:#F4F4F4;" d="M246.61,47.15v2.64c0,4.8-1.83,6.29-7.15,6.29c-2.3,0-4.56-1.11-5.33-3.41
		c-1.97,2.35-4.27,3.41-7.39,3.41c-4.56,0-7.39-1.78-7.39-6.67c0-9.07,14.25-3.74,14.25-10.03c0-3.17-2.02-4.22-4.65-4.22
		c-1.3,0-2.64,0.19-3.79,0.91v0.1c1.44,0.19,3.03,0.96,3.03,2.64c0,2.11-1.88,3.02-3.79,3.02c-2.26,0-4.18-1.3-4.18-3.55
		c0-5.33,7.25-6.09,11.14-6.09c6.57,0,10.13,1.54,10.13,8.54v8.93c0,1.39,0.14,1.92,0.91,1.92c1.05,0,1.59-0.62,1.59-3.31v-1.1h2.64
		L246.61,47.15z M233.51,44.27c-2.3,1.34-6.19,1.63-6.19,4.61c0,1.97,1.25,2.69,2.74,2.69c2.73,0,3.45-2.02,3.45-4.03v-3.26V44.27z"
		/>
	<path style="fill:#F4F4F4;" d="M300.46,52.33c4.12,0,8.4,1.01,8.4,6c0,6-6.53,7.2-14.01,7.2c-6.91,0-12.1-1.15-12.1-4.7
		c0-2.25,2.16-3.26,4.03-3.6v-0.1c-1.82-0.62-3.65-2.21-3.65-4.32c0-2.88,1.59-3.89,4.13-4.89c-2.26-1.58-3.27-3.84-3.27-7.3
		c0-5.76,5.61-8.45,10.65-8.45c2.59,0,5.09,0.87,7.3,2.16c1.49-1.3,3.26-2.16,5.28-2.16c2.64,0,5.23,1.63,5.23,4.51
		c0,2.21-1.34,3.45-3.55,3.45c-1.59,0-2.64-1.2-2.64-2.74c0-1.06,0.58-1.77,1.35-2.4c-1.06-0.19-2.5-0.86-4.13,1.01
		c0.86,1.44,1.68,3.21,1.68,4.94c0,6.29-5.09,9.07-11.04,9.07c-1.63,0-3.36-0.19-4.89-0.82c-0.48,0.15-0.96,0.68-0.96,1.39
		c0,1.2,1.68,1.73,2.45,1.73h9.74L300.46,52.33z M295.94,62.32c4.03,0,7.25-0.58,7.25-1.97c0-1.68-3.22-1.97-7.25-1.97
		s-7.25,0.29-7.25,1.97C288.69,61.74,291.9,62.32,295.94,62.32 M291.77,41.1c0,3.55,0.67,5.95,2.79,5.95s2.78-2.4,2.78-5.95
		s-0.67-6-2.78-6S291.77,37.55,291.77,41.1"/>
	<path style="fill:#F4F4F4;" d="M37.34,23.54v4.22c-2.98,0-4.18,0.09-5.42,1.2l-7.11,6.24l8.06,13.15c1.49,2.45,2.49,2.78,3.65,2.78
		h1.68v4.22H20.34v-4.22h1.73c0.91,0,1.87-0.1,1.87-0.53c0-0.48-0.43-1.25-0.86-1.92l-4.75-7.73l-4.94,4.17v4.08
		c0,1.2,0.67,1.92,1.87,1.92h2.45v4.22H0.05v-4.22H2.5c1.2,0,1.87-0.72,1.87-1.92V29.67c0-1.2-0.67-1.92-1.87-1.92H0v-4.22h17.76
		v4.22h-2.49c-1.2,0-1.87,0.72-1.87,1.92v9.02l5.86-5.09c2.73-2.35,5.42-4.51,5.42-4.94c0-0.86-1.2-0.91-2.35-0.91h-1.87v-4.22
		L37.34,23.54L37.34,23.54z"/>
	<path style="fill:#F4F4F4;" d="M52.89,49.45c0,1.34,0.34,2.06,1.73,2.06h1.97v3.84H41.14v-3.84h2.07c1.39,0,1.72-0.72,1.72-2.06
		V29.44c0-1.34-0.33-2.06-1.72-2.06H41v-3.84h11.9v25.92L52.89,49.45z"/>
	<path style="fill:#F4F4F4;" d="M90.37,32.89v3.7h0.1c2.11-3.07,4.37-4.42,8.26-4.42c5.47,0,7.29,3.17,7.29,8.16v9.12
		c0,1.35,0.34,2.07,1.73,2.07h1.83v3.84H95.33v-3.84h1.01c1.39,0,1.73-0.72,1.73-2.07V41.2c0-2.78-0.43-4.71-3.7-4.71
		c-2.21,0-3.6,2.06-3.6,4.08v8.88c0,1.35,0.33,2.07,1.73,2.07h1.15v3.84H79.16v-3.84h1.92c1.39,0,1.73-0.72,1.73-2.07V38.8
		c0-1.34-0.34-2.07-1.73-2.07h-1.97v-3.84h11.28L90.37,32.89z"/>
	<path style="fill:#F4F4F4;" d="M261.01,32.89v3.7h0.1c2.11-3.07,4.37-4.42,8.25-4.42c5.47,0,7.3,3.17,7.3,8.16v9.12
		c0,1.35,0.34,2.07,1.72,2.07h1.83v3.84h-14.25v-3.84h1.01c1.39,0,1.73-0.72,1.73-2.07V41.2c0-2.78-0.43-4.71-3.69-4.71
		c-2.21,0-3.6,2.06-3.6,4.08v8.88c0,1.35,0.33,2.07,1.73,2.07h1.15v3.84H249.8v-3.84h1.92c1.39,0,1.73-0.72,1.73-2.07V38.8
		c0-1.34-0.33-2.07-1.73-2.07h-1.97v-3.84L261.01,32.89L261.01,32.89z"/>
</g>
<rect x="285.6" y="24.45" style="fill:#F4F4F4;" width="20.28" height="1.46"/>
<rect x="285.6" y="26.87" style="fill:#F4F4F4;" width="20.28" height="1.46"/>
<path style="fill:#F4F4F4;" d="M295.74,16.76c-6.14,0-11.11,2.39-11.11,5.33c0,1.51,1.31,2.86,3.41,3.83h15.39
	c2.1-0.97,3.41-2.33,3.41-3.83C306.84,19.15,301.86,16.76,295.74,16.76"/>
<rect x="294.98" y="4.29" style="fill:#F4F4F4;" width="1.86" height="5.05"/>
<polygon style="fill:#F4F4F4;" points="298.11,5.93 296.04,4.88 293.93,5.82 294.39,3.71 292.73,2.16 295.07,1.91 296.17,0 
	297.17,1.96 299.5,2.33 297.77,3.79 "/>
<g>
	<path style="fill:#F4F4F4;" d="M286.34,4.99c0,0.77,0.62,1.39,1.39,1.39s1.4-0.62,1.4-1.39s-0.62-1.4-1.4-1.4
		S286.34,4.22,286.34,4.99"/>
	<path style="fill:#F4F4F4;" d="M279.99,7.83c0,0.77,0.62,1.39,1.4,1.39s1.4-0.62,1.4-1.39s-0.62-1.4-1.4-1.4
		S279.99,7.06,279.99,7.83"/>
	<path style="fill:#F4F4F4;" d="M275.23,12.91c0,0.77,0.62,1.4,1.4,1.4s1.39-0.62,1.39-1.4s-0.62-1.39-1.39-1.39
		S275.23,12.14,275.23,12.91"/>
	<path style="fill:#F4F4F4;" d="M275,19.69c0,0.77,0.63,1.39,1.4,1.39s1.4-0.62,1.4-1.39s-0.62-1.4-1.4-1.4S275,18.91,275,19.69"/>
	<path style="fill:#F4F4F4;" d="M278.36,25.89c0,0.77,0.62,1.39,1.4,1.39s1.4-0.62,1.4-1.39s-0.62-1.39-1.4-1.39
		S278.36,25.12,278.36,25.89"/>
	<path style="fill:#F4F4F4;" d="M305.14,4.95c0,0.77-0.62,1.39-1.4,1.39s-1.4-0.62-1.4-1.39s0.63-1.4,1.4-1.4
		S305.14,4.17,305.14,4.95"/>
	<path style="fill:#F4F4F4;" d="M311.5,7.79c0,0.77-0.63,1.4-1.4,1.4s-1.4-0.62-1.4-1.4s0.62-1.39,1.4-1.39S311.5,7.02,311.5,7.79"
		/>
	<path style="fill:#F4F4F4;" d="M316.25,12.87c0,0.77-0.62,1.39-1.4,1.39s-1.39-0.62-1.39-1.39s0.62-1.4,1.39-1.4
		S316.25,12.09,316.25,12.87"/>
	<path style="fill:#F4F4F4;" d="M316.48,19.64c0,0.77-0.62,1.4-1.39,1.4s-1.4-0.63-1.4-1.4s0.62-1.4,1.4-1.4
		S316.48,18.87,316.48,19.64"/>
	<path style="fill:#F4F4F4;" d="M313.12,25.85c0,0.77-0.62,1.39-1.4,1.39s-1.4-0.62-1.4-1.39s0.62-1.4,1.4-1.4
		S313.12,25.07,313.12,25.85"/>
</g>
</svg>
